<svg width="109" height="21" viewBox="0 0 109 21" fill="none" xmlns="http://www.w3.org/2000/svg">
<path d="M47.7275 17H44.6689V16.0068C44.6104 16.0889 44.5195 16.1973 44.3965 16.332C44.2793 16.4668 44.0186 16.6426 43.6143 16.8594C43.2158 17.0703 42.7881 17.1758 42.3311 17.1758C41.4932 17.1758 40.8018 16.9326 40.2568 16.4463C39.7178 15.9541 39.4482 15.3594 39.4482 14.6621C39.4482 13.9414 39.6826 13.3408 40.1514 12.8604C40.6201 12.3799 41.2852 12.0488 42.1465 11.8672L44.6689 11.3311C44.6689 11.0908 44.5605 10.8799 44.3438 10.6982C44.127 10.5166 43.8164 10.4258 43.4121 10.4258C43.0664 10.4258 42.7324 10.502 42.4102 10.6543C42.0938 10.8066 41.8682 10.9531 41.7334 11.0938L41.5225 11.3311L39.9932 9.71387C40.0283 9.66699 40.0752 9.60547 40.1338 9.5293C40.1924 9.44727 40.3359 9.30957 40.5645 9.11621C40.793 8.92285 41.0391 8.75293 41.3027 8.60645C41.5664 8.4541 41.9121 8.31641 42.3398 8.19336C42.7676 8.06445 43.2129 8 43.6758 8C44.8535 8 45.8232 8.3457 46.585 9.03711C47.3467 9.72852 47.7275 10.5576 47.7275 11.5244V17ZM43.3242 14.8379C43.6934 14.8379 44.0098 14.6943 44.2734 14.4072C44.5371 14.1201 44.6689 13.7539 44.6689 13.3086V13.0361L43.3242 13.3086C43.0957 13.3555 42.9023 13.458 42.7441 13.6162C42.5859 13.7744 42.5068 13.9414 42.5068 14.1172C42.5127 14.5977 42.7852 14.8379 43.3242 14.8379ZM59.0654 8.17578L55.8223 11.9639L59.1533 17H55.8223L53.7568 13.8535L52.9482 14.75V17H49.8896V8.17578H52.9482V11.2432L55.5586 8.17578H59.0654ZM69.3311 8.17578L66.0879 11.9639L69.4189 17H66.0879L64.0225 13.8535L63.2139 14.75V17H60.1553V8.17578H63.2139V11.2432L65.8242 8.17578H69.3311ZM78.1553 17H75.0967V16.0068C75.0381 16.0889 74.9473 16.1973 74.8242 16.332C74.707 16.4668 74.4463 16.6426 74.042 16.8594C73.6436 17.0703 73.2158 17.1758 72.7588 17.1758C71.9209 17.1758 71.2295 16.9326 70.6846 16.4463C70.1455 15.9541 69.876 15.3594 69.876 14.6621C69.876 13.9414 70.1104 13.3408 70.5791 12.8604C71.0479 12.3799 71.7129 12.0488 72.5742 11.8672L75.0967 11.3311C75.0967 11.0908 74.9883 10.8799 74.7715 10.6982C74.5547 10.5166 74.2441 10.4258 73.8398 10.4258C73.4941 10.4258 73.1602 10.502 72.8379 10.6543C72.5215 10.8066 72.2959 10.9531 72.1611 11.0938L71.9502 11.3311L70.4209 9.71387C70.4561 9.66699 70.5029 9.60547 70.5615 9.5293C70.6201 9.44727 70.7637 9.30957 70.9922 9.11621C71.2207 8.92285 71.4668 8.75293 71.7305 8.60645C71.9941 8.4541 72.3398 8.31641 72.7676 8.19336C73.1953 8.06445 73.6406 8 74.1035 8C75.2812 8 76.251 8.3457 77.0127 9.03711C77.7744 9.72852 78.1553 10.5576 78.1553 11.5244V17ZM73.752 14.8379C74.1211 14.8379 74.4375 14.6943 74.7012 14.4072C74.9648 14.1201 75.0967 13.7539 75.0967 13.3086V13.0361L73.752 13.3086C73.5234 13.3555 73.3301 13.458 73.1719 13.6162C73.0137 13.7744 72.9346 13.9414 72.9346 14.1172C72.9404 14.5977 73.2129 14.8379 73.752 14.8379ZM82.2949 17.1758L82.4707 16.8242L79.2363 8.17578H82.4707L84.0967 13.3086L85.7139 8.17578H88.957L85.626 17C85.1338 18.3066 84.5771 19.2617 83.9561 19.8652C83.3408 20.4746 82.6055 20.7793 81.75 20.7793C81.4629 20.7793 81.1758 20.7559 80.8887 20.709C80.6016 20.6621 80.3906 20.6152 80.2559 20.5684L80.0449 20.5068V17.8086C80.2852 17.9258 80.584 17.9873 80.9414 17.9932C81.5684 17.9873 82.0195 17.7148 82.2949 17.1758ZM93.0967 13.9414V17H90.0381V8.17578H93.0967V11.2432H95.707V8.17578H98.7656V17H95.707V13.9414H93.0967ZM100.119 11.0586V8.17578H108.407V11.0586H105.797V17H102.729V11.0586H100.119Z" fill="white"/>
<path d="M8.91508 20.9868C11.4312 20.9868 13.9474 21.0266 16.4612 20.9511C16.9252 20.9368 17.6295 20.5639 17.787 20.1768C18.3345 18.8253 17.8004 17.1384 16.5628 16.3005C15.6513 15.6836 14.606 15.2671 13.6031 14.7901C12.256 14.1541 11.1453 14.3242 10.1369 15.585C9.242 16.702 8.68347 16.7195 7.84607 15.6447C6.77233 14.2662 5.58121 14.1923 4.15376 14.8386C3.51645 15.1271 2.86496 15.3863 2.2371 15.6955C0.677304 16.4643 -0.0986543 17.6528 0.0147854 19.4891C0.0856853 20.6402 0.543381 21.0147 1.61791 20.9996C4.0482 20.9582 6.48243 20.9868 8.91508 20.9868ZM8.93083 10.9886C11.083 11.0013 12.8847 9.22054 12.9138 7.05029C12.943 4.88003 11.1878 3.04445 9.04191 3.00073C8.51512 2.99059 7.99161 3.08645 7.50194 3.2827C7.01226 3.47895 6.56623 3.77166 6.18988 4.14376C5.81352 4.51585 5.51439 4.95987 5.30993 5.44989C5.10547 5.93992 4.99978 6.46613 4.99904 6.99782C4.99904 9.16649 6.78335 10.975 8.93083 10.9886V10.9886Z" fill="white"/>
<path d="M8.91354 20.9877C6.48088 20.9877 4.04665 20.9615 1.614 20.9996C0.539475 21.0171 0.081779 20.6427 0.0108792 19.4892C-0.102561 17.6528 0.673398 16.4683 2.23319 15.6956C2.86341 15.3864 3.51254 15.1272 4.14985 14.8386C5.5773 14.1923 6.76842 14.2663 7.84216 15.6447C8.67956 16.7195 9.2381 16.702 10.133 15.5851C11.1437 14.3243 12.2545 14.1542 13.5992 14.7901C14.6021 15.2616 15.6474 15.6821 16.5589 16.3006C17.7965 17.1385 18.3306 18.8286 17.7831 20.1768C17.6255 20.564 16.9213 20.9368 16.4573 20.9511C13.9458 21.0274 11.4297 20.9877 8.91354 20.9877Z" fill="white"/>
<path d="M8.931 10.9885C6.78352 10.975 5.00158 9.16647 5 6.99781C5.00074 6.46619 5.1064 5.94004 5.31081 5.45006C5.51522 4.96009 5.81429 4.51611 6.19056 4.14403C6.56683 3.77195 7.01277 3.47922 7.50235 3.28292C7.99194 3.08662 8.51536 2.99068 9.04208 3.00071C11.188 3.04444 12.9424 4.87922 12.914 7.05027C12.8856 9.22132 11.0832 11.0013 8.931 10.9885Z" fill="white"/>
</svg>
