<svg width="111" height="54" viewBox="0 0 111 54" fill="none" xmlns="http://www.w3.org/2000/svg">
<path d="M13.6263 0V9.25042C13.6263 11.7868 11.6 13.8756 9.07439 13.8756C6.5782 13.8756 4.52251 11.7868 4.52251 9.25042V0H0V9.25042C0 14.3531 4.05264 18.471 9.07439 18.471C10.7483 18.471 12.3048 18.0234 13.6263 17.2476V18.471H18.1782V0H13.6263Z" fill="#00FFDF"/>
<path d="M34.7625 6.92289C36.1721 4.98329 37.0531 2.59609 37.0531 0H21.1362V4.62521H30.7392C29.5058 6.02769 27.685 6.92289 25.6587 6.92289V11.5481H34.7625V13.8756H21.1362V18.471H39.3143V6.92289H34.7625Z" fill="#00FFDF"/>
<path d="M55.8986 0V9.25042C55.8986 11.7868 53.8723 13.8756 51.3468 13.8756C48.8506 13.8756 46.7949 11.7868 46.7949 9.25042V0H42.2724V9.25042C42.2724 14.3531 46.325 18.471 51.3468 18.471C53.0207 18.471 54.5771 18.0234 55.8986 17.2476V18.471H60.4505V0H55.8986Z" fill="#00FFDF"/>
<path d="M16.0193 28.6017V21.7734H11.4426V28.6017H0.015625V46.8202H11.4426V53.6779H16.0193V46.8202H27.4463V28.6017H16.0193ZM11.4426 42.2876H4.5628V33.1637H11.4426V42.2876ZM22.8696 42.2876H16.0193V33.1637H22.8696V42.2876Z" fill="#00FFDF"/>
<path d="M32.3566 28.6017V38.8441C32.3566 40.7572 30.8211 42.2876 28.9314 42.2876V46.8202C33.331 46.8202 36.9333 43.2589 36.9333 38.8441V33.1637H43.7835V46.8202H48.3602V28.6017H32.3566Z" fill="#00FFDF"/>
<path d="M65.0426 37.7257C65.0426 40.2274 63.0052 42.2876 60.4659 42.2876C58.7828 42.2876 57.3065 41.3458 56.5093 39.9919H60.4659V35.4299H55.8892V33.1637H67.3457V28.6017H51.342V37.7257C51.342 42.7585 55.4168 46.8202 60.4659 46.8202C65.515 46.8202 69.6193 42.7585 69.6193 37.7257H65.0426Z" fill="#00FFDF"/>
<path d="M82.5203 35.4299C83.9671 33.5169 84.8234 31.1623 84.8234 28.6017H80.2467C80.2467 31.5743 78.357 34.1055 75.67 35.0473V28.6017H71.1229V46.8202H75.67V39.9919H84.8234V46.8202H89.4001V35.4299H82.5203Z" fill="#00FFDF"/>
<path d="M100.908 42.2876C98.3978 42.2876 96.3309 40.2274 96.3309 37.7257C96.3309 35.1945 98.3978 33.1637 100.908 33.1637C103.034 33.1637 104.835 34.6058 105.337 36.5778H110.002C109.441 32.0747 105.573 28.6017 100.908 28.6017C95.8585 28.6017 91.7837 32.6928 91.7837 37.7257C91.7837 42.7585 95.8585 46.8202 100.908 46.8202C105.573 46.8202 109.441 43.3472 110.002 38.8441H105.337C104.835 40.816 103.034 42.2876 100.908 42.2876Z" fill="#00FFDF"/>
</svg>
