<svg width="112" height="24" viewBox="0 0 112 24" fill="none" xmlns="http://www.w3.org/2000/svg">
<path d="M43.0518 13.9414V17H39.9932V8.17578H43.0518V11.2432H45.6621V8.17578H48.7207V17H45.6621V13.9414H43.0518ZM54.0996 11.252C53.7598 11.6152 53.5898 12.0605 53.5898 12.5879C53.5898 13.1152 53.7598 13.5635 54.0996 13.9326C54.4453 14.2959 54.8438 14.4775 55.2949 14.4775C55.752 14.4775 56.1504 14.2959 56.4902 13.9326C56.8359 13.5635 57.0088 13.1152 57.0088 12.5879C57.0088 12.0605 56.8359 11.6152 56.4902 11.252C56.1504 10.8828 55.752 10.6982 55.2949 10.6982C54.8438 10.6982 54.4453 10.8828 54.0996 11.252ZM58.7227 9.37988C59.6777 10.2939 60.1553 11.3633 60.1553 12.5879C60.1553 13.8125 59.6777 14.8848 58.7227 15.8047C57.7734 16.7188 56.6309 17.1758 55.2949 17.1758C53.9648 17.1758 52.8223 16.7188 51.8672 15.8047C50.9121 14.8848 50.4346 13.8125 50.4346 12.5879C50.4346 11.3633 50.9121 10.2939 51.8672 9.37988C52.8223 8.45996 53.9648 8 55.2949 8C56.6309 8 57.7734 8.45996 58.7227 9.37988ZM61.8779 8.17578H66.5537C67.5498 8.17578 68.3379 8.41602 68.918 8.89648C69.5039 9.37695 69.7969 9.94824 69.7969 10.6104C69.7969 11.0088 69.6973 11.3574 69.498 11.6562C69.2988 11.9551 69.1025 12.1514 68.9092 12.2451L68.6279 12.4121L68.7861 12.4648C68.8564 12.4883 68.9795 12.5557 69.1553 12.667C69.3311 12.7725 69.4863 12.8955 69.6211 13.0361C69.7617 13.1709 69.8848 13.3584 69.9902 13.5986C70.1016 13.8389 70.1572 14.1025 70.1572 14.3896C70.1572 15.1455 69.8643 15.7695 69.2783 16.2617C68.6982 16.7539 67.8516 17 66.7383 17H61.8779V8.17578ZM66.3779 13.3965H64.9365V14.8379H66.3779C66.8584 14.8379 67.0986 14.5977 67.0986 14.1172C67.0986 13.6367 66.8584 13.3965 66.3779 13.3965ZM66.8262 10.9707C66.8262 10.8008 66.7646 10.6543 66.6416 10.5312C66.5244 10.4023 66.375 10.3379 66.1934 10.3379H64.9365V11.6035H66.1934C66.375 11.6035 66.5244 11.5449 66.6416 11.4277C66.7646 11.3047 66.8262 11.1523 66.8262 10.9707ZM75.0703 11.252C74.7305 11.6152 74.5605 12.0605 74.5605 12.5879C74.5605 13.1152 74.7305 13.5635 75.0703 13.9326C75.416 14.2959 75.8145 14.4775 76.2656 14.4775C76.7227 14.4775 77.1211 14.2959 77.4609 13.9326C77.8066 13.5635 77.9795 13.1152 77.9795 12.5879C77.9795 12.0605 77.8066 11.6152 77.4609 11.252C77.1211 10.8828 76.7227 10.6982 76.2656 10.6982C75.8145 10.6982 75.416 10.8828 75.0703 11.252ZM79.6934 9.37988C80.6484 10.2939 81.126 11.3633 81.126 12.5879C81.126 13.8125 80.6484 14.8848 79.6934 15.8047C78.7441 16.7188 77.6016 17.1758 76.2656 17.1758C74.9355 17.1758 73.793 16.7188 72.8379 15.8047C71.8828 14.8848 71.4053 13.8125 71.4053 12.5879C71.4053 11.3633 71.8828 10.2939 72.8379 9.37988C73.793 8.45996 74.9355 8 76.2656 8C77.6016 8 78.7441 8.45996 79.6934 9.37988ZM83.8242 15.8047C82.8691 14.8848 82.3916 13.8125 82.3916 12.5879C82.3916 11.3633 82.8691 10.2939 83.8242 9.37988C84.7793 8.45996 85.9219 8 87.252 8C87.7207 8 88.1719 8.06445 88.6055 8.19336C89.0391 8.31641 89.3965 8.46582 89.6777 8.6416C89.959 8.81152 90.208 8.98438 90.4248 9.16016C90.6416 9.33594 90.7969 9.48828 90.8906 9.61719L91.0312 9.80176L89.2383 11.6914C89.1914 11.6211 89.1211 11.5332 89.0273 11.4277C88.9395 11.3164 88.7373 11.167 88.4209 10.9795C88.1104 10.792 87.7822 10.6982 87.4365 10.6982C86.8975 10.6982 86.4463 10.8799 86.083 11.2432C85.7256 11.6006 85.5469 12.0488 85.5469 12.5879C85.5469 13.127 85.7256 13.5781 86.083 13.9414C86.4463 14.2988 86.8975 14.4775 87.4365 14.4775C87.7822 14.4775 88.1045 14.3955 88.4033 14.2314C88.708 14.0615 88.9248 13.8916 89.0537 13.7217L89.2383 13.4932L91.0312 15.3828C90.9961 15.4297 90.9463 15.4971 90.8818 15.585C90.8174 15.667 90.668 15.8105 90.4336 16.0156C90.1992 16.2148 89.9473 16.3936 89.6777 16.5518C89.4082 16.7041 89.0537 16.8477 88.6143 16.9824C88.1748 17.1113 87.7207 17.1758 87.252 17.1758C85.9219 17.1758 84.7793 16.7188 83.8242 15.8047ZM91.752 11.0586V8.17578H100.04V11.0586H97.4297V17H94.3623V11.0586H91.752ZM107.599 8.17578H110.209V17H107.15V12.8604L104.004 17H101.394V8.17578H104.452V12.3242L107.599 8.17578Z" fill="white"/>
<path d="M1.79999 3C0.805496 3 0 3.895 0 5V18C0 19.657 1.20869 21 2.69999 21H15.2999C16.7804 21 17.9999 19.645 17.9999 18V8C18.0016 7.86621 17.979 7.73341 17.9337 7.60947C17.8883 7.48553 17.821 7.37297 17.7358 7.27845C17.6505 7.18393 17.5491 7.10937 17.4375 7.05919C17.3258 7.00902 17.2063 6.98424 17.0859 6.98633C16.8475 6.99047 16.6203 7.09953 16.4542 7.28957C16.2881 7.47962 16.1967 7.73512 16.1999 8V18C16.1999 18.565 15.8085 19 15.2999 19C14.8031 19 14.3999 18.551 14.3999 18V5C14.3999 3.895 13.5944 3 12.5999 3H1.79999ZM4.49998 6H9.89995C10.3968 6 10.7999 6.448 10.7999 7V8C10.7999 8.552 10.3968 9 9.89995 9H4.49998C4.00318 9 3.59998 8.552 3.59998 8V7C3.59998 6.448 4.00318 6 4.49998 6ZM4.49998 12H9.89995C10.3968 12 10.7999 12.448 10.7999 13C10.7999 13.552 10.3968 14 9.89995 14H4.49998C4.00318 14 3.59998 13.552 3.59998 13C3.59998 12.448 4.00318 12 4.49998 12ZM4.49998 16H9.89995C10.3968 16 10.7999 16.448 10.7999 17C10.7999 17.552 10.3968 18 9.89995 18H4.49998C4.00318 18 3.59998 17.552 3.59998 17C3.59998 16.448 4.00318 16 4.49998 16Z" fill="white"/>
</svg>
