<svg width="109" height="20" viewBox="0 0 109 20" fill="none" xmlns="http://www.w3.org/2000/svg">
<path d="M46.8311 8.17578V11.0586H43.0518V17H39.9932V8.17578H46.8311ZM48.9932 8.17578H56.5518V17H53.4932V10.8828H51.7793C51.7793 12.1074 51.7002 13.1445 51.542 13.9941C51.3896 14.8438 51.1611 15.5029 50.8564 15.9717C50.5518 16.4404 50.2061 16.7744 49.8193 16.9736C49.4385 17.1729 48.9844 17.2725 48.457 17.2725C48.2168 17.2725 47.9766 17.2461 47.7363 17.1934C47.4961 17.1465 47.3145 17.1055 47.1914 17.0703L47.0156 17V14.3018C47.1973 14.3604 47.376 14.3896 47.5518 14.3896C47.8857 14.3896 48.1465 14.3018 48.334 14.126C48.5215 13.9443 48.6768 13.543 48.7998 12.9219C48.9287 12.2949 48.9932 11.4043 48.9932 10.25V8.17578ZM66.4482 17H63.3896V16.0068C63.3311 16.0889 63.2402 16.1973 63.1172 16.332C63 16.4668 62.7393 16.6426 62.335 16.8594C61.9365 17.0703 61.5088 17.1758 61.0518 17.1758C60.2139 17.1758 59.5225 16.9326 58.9775 16.4463C58.4385 15.9541 58.1689 15.3594 58.1689 14.6621C58.1689 13.9414 58.4033 13.3408 58.8721 12.8604C59.3408 12.3799 60.0059 12.0488 60.8672 11.8672L63.3896 11.3311C63.3896 11.0908 63.2812 10.8799 63.0645 10.6982C62.8477 10.5166 62.5371 10.4258 62.1328 10.4258C61.7871 10.4258 61.4531 10.502 61.1309 10.6543C60.8145 10.8066 60.5889 10.9531 60.4541 11.0938L60.2432 11.3311L58.7139 9.71387C58.749 9.66699 58.7959 9.60547 58.8545 9.5293C58.9131 9.44727 59.0566 9.30957 59.2852 9.11621C59.5137 8.92285 59.7598 8.75293 60.0234 8.60645C60.2871 8.4541 60.6328 8.31641 61.0605 8.19336C61.4883 8.06445 61.9336 8 62.3965 8C63.5742 8 64.5439 8.3457 65.3057 9.03711C66.0674 9.72852 66.4482 10.5576 66.4482 11.5244V17ZM62.0449 14.8379C62.4141 14.8379 62.7305 14.6943 62.9941 14.4072C63.2578 14.1201 63.3896 13.7539 63.3896 13.3086V13.0361L62.0449 13.3086C61.8164 13.3555 61.623 13.458 61.4648 13.6162C61.3066 13.7744 61.2275 13.9414 61.2275 14.1172C61.2334 14.5977 61.5059 14.8379 62.0449 14.8379ZM68.6104 8.17578H73.2861C74.2822 8.17578 75.0703 8.41602 75.6504 8.89648C76.2363 9.37695 76.5293 9.94824 76.5293 10.6104C76.5293 11.0088 76.4297 11.3574 76.2305 11.6562C76.0312 11.9551 75.835 12.1514 75.6416 12.2451L75.3604 12.4121L75.5186 12.4648C75.5889 12.4883 75.7119 12.5557 75.8877 12.667C76.0635 12.7725 76.2188 12.8955 76.3535 13.0361C76.4941 13.1709 76.6172 13.3584 76.7227 13.5986C76.834 13.8389 76.8896 14.1025 76.8896 14.3896C76.8896 15.1455 76.5967 15.7695 76.0107 16.2617C75.4307 16.7539 74.584 17 73.4707 17H68.6104V8.17578ZM73.1104 13.3965H71.6689V14.8379H73.1104C73.5908 14.8379 73.8311 14.5977 73.8311 14.1172C73.8311 13.6367 73.5908 13.3965 73.1104 13.3965ZM73.5586 10.9707C73.5586 10.8008 73.4971 10.6543 73.374 10.5312C73.2568 10.4023 73.1074 10.3379 72.9258 10.3379H71.6689V11.6035H72.9258C73.1074 11.6035 73.2568 11.5449 73.374 11.4277C73.4971 11.3047 73.5586 11.1523 73.5586 10.9707ZM81.6533 13.9414V17H78.5947V8.17578H81.6533V11.2432H84.2637V8.17578H87.3223V17H84.2637V13.9414H81.6533ZM97.2275 17H94.1689V16.0068C94.1104 16.0889 94.0195 16.1973 93.8965 16.332C93.7793 16.4668 93.5186 16.6426 93.1143 16.8594C92.7158 17.0703 92.2881 17.1758 91.8311 17.1758C90.9932 17.1758 90.3018 16.9326 89.7568 16.4463C89.2178 15.9541 88.9482 15.3594 88.9482 14.6621C88.9482 13.9414 89.1826 13.3408 89.6514 12.8604C90.1201 12.3799 90.7852 12.0488 91.6465 11.8672L94.1689 11.3311C94.1689 11.0908 94.0605 10.8799 93.8438 10.6982C93.627 10.5166 93.3164 10.4258 92.9121 10.4258C92.5664 10.4258 92.2324 10.502 91.9102 10.6543C91.5938 10.8066 91.3682 10.9531 91.2334 11.0938L91.0225 11.3311L89.4932 9.71387C89.5283 9.66699 89.5752 9.60547 89.6338 9.5293C89.6924 9.44727 89.8359 9.30957 90.0645 9.11621C90.293 8.92285 90.5391 8.75293 90.8027 8.60645C91.0664 8.4541 91.4121 8.31641 91.8398 8.19336C92.2676 8.06445 92.7129 8 93.1758 8C94.3535 8 95.3232 8.3457 96.085 9.03711C96.8467 9.72852 97.2275 10.5576 97.2275 11.5244V17ZM92.8242 14.8379C93.1934 14.8379 93.5098 14.6943 93.7734 14.4072C94.0371 14.1201 94.1689 13.7539 94.1689 13.3086V13.0361L92.8242 13.3086C92.5957 13.3555 92.4023 13.458 92.2441 13.6162C92.0859 13.7744 92.0068 13.9414 92.0068 14.1172C92.0127 14.5977 92.2852 14.8379 92.8242 14.8379ZM102.721 8.17578H107.221V17H104.153V14.4775H103.433L101.903 17H98.7568L100.646 13.9414C100.611 13.918 100.556 13.8887 100.479 13.8535C100.409 13.8125 100.286 13.7188 100.11 13.5723C99.9404 13.4199 99.7852 13.2529 99.6445 13.0713C99.5098 12.8838 99.3867 12.6348 99.2754 12.3242C99.1699 12.0078 99.1172 11.6768 99.1172 11.3311C99.1172 10.4521 99.4541 9.70801 100.128 9.09863C100.802 8.4834 101.666 8.17578 102.721 8.17578ZM104.153 10.5225H103.072C102.809 10.5225 102.592 10.5957 102.422 10.7422C102.258 10.8828 102.176 11.0791 102.176 11.3311C102.176 11.583 102.258 11.7822 102.422 11.9287C102.592 12.0693 102.809 12.1396 103.072 12.1396H104.153V10.5225Z" fill="white"/>
<path d="M16.5682 10.5298C16.5682 12.895 16.5754 15.4049 16.5682 17.9149C16.5626 19.5202 16.0883 19.9945 14.4645 19.9945C10.8215 20.0015 7.17864 20.0015 3.53608 19.9945C1.93636 19.9945 1.48205 19.5146 1.47725 17.8717C1.47005 15.3625 1.47725 12.8542 1.47725 10.505L0.00390625 9.56838C0.304653 9.15005 0.535013 8.64694 0.917345 8.32699C3.22814 6.39134 5.60292 4.53247 7.89131 2.57202C8.71516 1.86574 9.31826 1.76416 10.1309 2.54642C10.8996 3.28709 11.789 3.90618 12.6993 4.63245C12.9104 3.72061 12.4921 2.57361 13.9398 2.6288C14.6421 2.6552 15.182 2.91195 15.0396 3.64302C14.5917 5.93862 15.5995 7.44155 17.4616 8.59495C17.7504 8.77331 18.0815 9.46279 17.9879 9.57397C17.6768 9.93631 17.1833 10.1419 16.5682 10.5298ZM11.2611 12.5294H6.8467V18.3852H11.2611V12.5294Z" fill="white"/>
</svg>
