<svg width="131" height="24" viewBox="0 0 131 24" fill="none" xmlns="http://www.w3.org/2000/svg">
<path d="M49.1689 8.17578L45.9258 11.9639L49.2568 17H45.9258L43.8604 13.8535L43.0518 14.75V17H39.9932V8.17578H43.0518V11.2432L45.6621 8.17578H49.1689ZM57.9932 17H54.9346V16.0068C54.876 16.0889 54.7852 16.1973 54.6621 16.332C54.5449 16.4668 54.2842 16.6426 53.8799 16.8594C53.4814 17.0703 53.0537 17.1758 52.5967 17.1758C51.7588 17.1758 51.0674 16.9326 50.5225 16.4463C49.9834 15.9541 49.7139 15.3594 49.7139 14.6621C49.7139 13.9414 49.9482 13.3408 50.417 12.8604C50.8857 12.3799 51.5508 12.0488 52.4121 11.8672L54.9346 11.3311C54.9346 11.0908 54.8262 10.8799 54.6094 10.6982C54.3926 10.5166 54.082 10.4258 53.6777 10.4258C53.332 10.4258 52.998 10.502 52.6758 10.6543C52.3594 10.8066 52.1338 10.9531 51.999 11.0938L51.7881 11.3311L50.2588 9.71387C50.2939 9.66699 50.3408 9.60547 50.3994 9.5293C50.458 9.44727 50.6016 9.30957 50.8301 9.11621C51.0586 8.92285 51.3047 8.75293 51.5684 8.60645C51.832 8.4541 52.1777 8.31641 52.6055 8.19336C53.0332 8.06445 53.4785 8 53.9414 8C55.1191 8 56.0889 8.3457 56.8506 9.03711C57.6123 9.72852 57.9932 10.5576 57.9932 11.5244V17ZM53.5898 14.8379C53.959 14.8379 54.2754 14.6943 54.5391 14.4072C54.8027 14.1201 54.9346 13.7539 54.9346 13.3086V13.0361L53.5898 13.3086C53.3613 13.3555 53.168 13.458 53.0098 13.6162C52.8516 13.7744 52.7725 13.9414 52.7725 14.1172C52.7783 14.5977 53.0508 14.8379 53.5898 14.8379ZM59.3379 11.0586V8.17578H67.626V11.0586H65.0156V17H61.9482V11.0586H59.3379ZM77.707 13.3965H71.6777C71.7246 13.7422 71.9326 14.0557 72.3018 14.3369C72.6768 14.6123 73.1572 14.75 73.7432 14.75C74.1123 14.75 74.4609 14.6768 74.7891 14.5303C75.123 14.3779 75.3633 14.2285 75.5098 14.082L75.7295 13.8535L77.0742 15.8311C77.0391 15.8662 76.9863 15.916 76.916 15.9805C76.8457 16.0391 76.6904 16.1475 76.4502 16.3057C76.21 16.458 75.9551 16.5957 75.6855 16.7188C75.4219 16.8359 75.0791 16.9414 74.6572 17.0352C74.2412 17.1289 73.8164 17.1758 73.3828 17.1758C72 17.1758 70.8428 16.7305 69.9111 15.8398C68.9854 14.9434 68.5225 13.8594 68.5225 12.5879C68.5225 11.3281 68.9795 10.25 69.8936 9.35352C70.8076 8.45117 71.9121 8 73.207 8C74.502 8 75.5889 8.43066 76.4678 9.29199C77.3525 10.1475 77.7949 11.1875 77.7949 12.4121L77.707 13.3965ZM74.2002 10.6982C73.9365 10.458 73.6055 10.3379 73.207 10.3379C72.8086 10.3379 72.4775 10.4551 72.2139 10.6895C71.9502 10.9238 71.7715 11.2285 71.6777 11.6035H74.7363C74.6426 11.2344 74.4639 10.9326 74.2002 10.6982ZM86.2588 8.17578V11.0586H82.4795V17H79.4209V8.17578H86.2588ZM90.7324 11.252C90.3926 11.6152 90.2227 12.0605 90.2227 12.5879C90.2227 13.1152 90.3926 13.5635 90.7324 13.9326C91.0781 14.2959 91.4766 14.4775 91.9277 14.4775C92.3848 14.4775 92.7832 14.2959 93.123 13.9326C93.4688 13.5635 93.6416 13.1152 93.6416 12.5879C93.6416 12.0605 93.4688 11.6152 93.123 11.252C92.7832 10.8828 92.3848 10.6982 91.9277 10.6982C91.4766 10.6982 91.0781 10.8828 90.7324 11.252ZM95.3555 9.37988C96.3105 10.2939 96.7881 11.3633 96.7881 12.5879C96.7881 13.8125 96.3105 14.8848 95.3555 15.8047C94.4062 16.7188 93.2637 17.1758 91.9277 17.1758C90.5977 17.1758 89.4551 16.7188 88.5 15.8047C87.5449 14.8848 87.0674 13.8125 87.0674 12.5879C87.0674 11.3633 87.5449 10.2939 88.5 9.37988C89.4551 8.45996 90.5977 8 91.9277 8C93.2637 8 94.4062 8.45996 95.3555 9.37988ZM102.079 11.252C101.739 11.6152 101.569 12.0605 101.569 12.5879C101.569 13.1152 101.739 13.5635 102.079 13.9326C102.425 14.2959 102.823 14.4775 103.274 14.4775C103.731 14.4775 104.13 14.2959 104.47 13.9326C104.815 13.5635 104.988 13.1152 104.988 12.5879C104.988 12.0605 104.815 11.6152 104.47 11.252C104.13 10.8828 103.731 10.6982 103.274 10.6982C102.823 10.6982 102.425 10.8828 102.079 11.252ZM101.569 15.9189V20.7793H98.5107V8.17578H101.569V9.25684C101.593 9.22168 101.625 9.17773 101.666 9.125C101.707 9.07227 101.804 8.97559 101.956 8.83496C102.114 8.68848 102.284 8.55957 102.466 8.44824C102.647 8.33105 102.882 8.22852 103.169 8.14062C103.456 8.04688 103.764 8 104.092 8C105.193 8 106.143 8.43652 106.939 9.30957C107.736 10.1768 108.135 11.2725 108.135 12.5967C108.135 13.915 107.736 15.0078 106.939 15.875C106.143 16.7422 105.193 17.1758 104.092 17.1758C103.588 17.1758 103.125 17.0732 102.703 16.8682C102.281 16.6572 101.985 16.4492 101.815 16.2441L101.569 15.9189ZM116.054 8.17578H118.664V17H115.605V12.8604L112.459 17H109.849V8.17578H112.907V12.3242L116.054 8.17578ZM127.04 8.17578H129.65V17H126.592V12.8604L123.445 17H120.835V8.17578H123.894V12.3242L127.04 8.17578Z" fill="white"/>
<path d="M3.9907 4.99526C3.99069 5.39025 3.87345 5.77635 3.65381 6.10465C3.43417 6.43295 3.12202 6.68868 2.75691 6.83943C2.39179 6.99019 1.99015 7.02919 1.60285 6.95149C1.21556 6.8738 0.86004 6.6829 0.581336 6.40299C0.302633 6.12307 0.113284 5.76674 0.0372821 5.37913C-0.0387202 4.99152 0.00204367 4.59007 0.154406 4.22564C0.306769 3.86122 0.563875 3.55021 0.893155 3.33202C1.22244 3.11384 1.60907 2.99829 2.00408 3.00002C2.53045 3.00653 3.0333 3.2191 3.40471 3.59213C3.77612 3.96515 3.9865 4.46889 3.9907 4.99526V4.99526Z" fill="white"/>
<path d="M9.00365 3.00003C9.39877 2.99781 9.78564 3.11294 10.1153 3.33082C10.4449 3.5487 10.7024 3.85954 10.8551 4.22392C11.0078 4.5883 11.049 4.98982 10.9732 5.3776C10.8975 5.76537 10.7084 6.12193 10.4298 6.4021C10.1512 6.68226 9.79566 6.87341 9.4083 6.95131C9.02093 7.02921 8.61916 6.99036 8.25391 6.83968C7.88865 6.689 7.57635 6.43327 7.3566 6.10492C7.13685 5.77657 7.01954 5.39037 7.01953 4.99527C7.02276 4.46903 7.23248 3.9651 7.60357 3.59195C7.97465 3.21879 8.47742 3.00623 9.00365 3.00003Z" fill="white"/>
<path d="M17.9978 4.94184C18.0083 5.33658 17.9014 5.72557 17.6907 6.05954C17.48 6.39352 17.1749 6.65745 16.8141 6.81794C16.4533 6.97843 16.0529 7.02824 15.6638 6.96107C15.2746 6.89391 14.9142 6.71279 14.628 6.44064C14.3419 6.16849 14.1429 5.81756 14.0563 5.43228C13.9698 5.047 13.9995 4.64469 14.1417 4.27631C14.284 3.90792 14.5323 3.59002 14.8553 3.36286C15.1783 3.1357 15.5615 3.00949 15.9563 3.00022C16.483 2.99239 16.9918 3.19132 17.3734 3.55432C17.7551 3.91731 17.9793 4.41546 17.9978 4.94184Z" fill="white"/>
<path d="M3.99056 11.9794C3.99523 12.3743 3.88261 12.7617 3.66694 13.0925C3.45127 13.4234 3.14226 13.6828 2.77904 13.8379C2.41583 13.993 2.01474 14.0368 1.62659 13.9638C1.23845 13.8909 0.880687 13.7043 0.59863 13.4279C0.316572 13.1514 0.122905 12.7975 0.0421531 12.4109C-0.0385989 12.0243 -0.00280323 11.6225 0.145009 11.2563C0.292822 10.89 0.546001 10.5759 0.872482 10.3537C1.19896 10.1314 1.58406 10.011 1.979 10.0078C2.50566 10.0077 3.01134 10.2141 3.38746 10.5828C3.76357 10.9514 3.98011 11.4528 3.99056 11.9794Z" fill="white"/>
<path d="M10.9984 11.9868C11.0017 12.3818 10.8876 12.7689 10.6706 13.0989C10.4536 13.429 10.1436 13.6873 9.7797 13.841C9.41583 13.9947 9.01451 14.037 8.6266 13.9624C8.23869 13.8879 7.88163 13.6999 7.60066 13.4222C7.31968 13.1446 7.12744 12.7898 7.04829 12.4029C6.96913 12.0159 7.00662 11.6141 7.15601 11.2485C7.30539 10.8828 7.55995 10.5697 7.88744 10.3489C8.21493 10.128 8.60061 10.0093 8.99561 10.0078C9.52213 10.0097 10.0269 10.2181 10.4014 10.5881C10.7759 10.9582 10.9903 11.4604 10.9984 11.9868V11.9868Z" fill="white"/>
<path d="M17.998 11.957C18.007 12.3519 17.8987 12.7405 17.6867 13.0738C17.4747 13.407 17.1686 13.6698 16.807 13.8289C16.4455 13.9881 16.0449 14.0363 15.656 13.9676C15.267 13.8989 14.9072 13.7163 14.6221 13.4429C14.3371 13.1696 14.1395 12.8178 14.0545 12.4321C13.9696 12.0464 14.001 11.6441 14.1448 11.2763C14.2886 10.9084 14.5384 10.5915 14.8625 10.3658C15.1865 10.14 15.5703 10.0154 15.9652 10.0079C16.4917 10.0024 16.9993 10.2034 17.3793 10.5678C17.7593 10.9321 17.9814 11.4308 17.998 11.957Z" fill="white"/>
<path d="M3.99067 19.0132C3.98867 19.4084 3.86931 19.7942 3.64774 20.1215C3.42617 20.4488 3.11237 20.7029 2.74615 20.8517C2.37992 21.0004 1.97777 21.037 1.59072 20.9568C1.20366 20.8767 0.849124 20.6834 0.57209 20.4014C0.295056 20.1195 0.108 19.7617 0.0346539 19.3733C-0.0386924 18.9849 0.00497369 18.5835 0.160113 18.2199C0.315252 17.8564 0.574877 17.5471 0.906051 17.3314C1.23722 17.1156 1.62503 17.003 2.02027 17.008C2.54542 17.019 3.04545 17.2349 3.4136 17.6096C3.78174 17.9842 3.98884 18.4879 3.99067 19.0132Z" fill="white"/>
<path d="M9.02961 17.0079C9.42447 17.0131 9.80889 17.1354 10.1342 17.3592C10.4595 17.583 10.7111 17.8983 10.8571 18.2652C11.0031 18.6321 11.037 19.0341 10.9544 19.4202C10.8718 19.8063 10.6765 20.1593 10.3932 20.4344C10.1099 20.7094 9.75132 20.8943 9.3629 20.9655C8.97448 21.0367 8.57366 20.991 8.21121 20.8343C7.84875 20.6775 7.54095 20.4168 7.32678 20.0851C7.11261 19.7533 7.00169 19.3655 7.00807 18.9707C7.02017 18.4437 7.23887 17.9427 7.61704 17.5755C7.9952 17.2083 8.50252 17.0044 9.02961 17.0079V17.0079Z" fill="white"/>
<path d="M17.9984 19.027C17.9936 19.422 17.8717 19.8067 17.6481 20.1324C17.4245 20.458 17.1093 20.71 16.7423 20.8563C16.3754 21.0027 15.9733 21.0368 15.5869 20.9544C15.2005 20.872 14.8473 20.6767 14.5721 20.3934C14.2968 20.1101 14.1118 19.7514 14.0405 19.3629C13.9693 18.9743 14.015 18.5734 14.1718 18.2108C14.3287 17.8483 14.5897 17.5404 14.9216 17.3263C15.2536 17.1122 15.6417 17.0015 16.0367 17.0081C16.5628 17.0211 17.0628 17.2398 17.4296 17.6173C17.7963 17.9947 18.0005 18.5008 17.9984 19.027V19.027Z" fill="white"/>
</svg>
