<svg width="620" height="98" viewBox="0 0 620 98" fill="none" xmlns="http://www.w3.org/2000/svg">
<path d="M22.672 0.287999V15.168C22.672 19.248 19.36 22.608 15.232 22.608C11.152 22.608 7.792 19.248 7.792 15.168V0.287999H0.4V15.168C0.4 23.376 7.024 30 15.232 30C17.968 30 20.512 29.28 22.672 28.032V33.744H4.096V41.184H30.112V0.287999H22.672ZM49.7789 0.287999C47.0909 0.287999 44.5469 1.008 42.3389 2.304V0.287999H34.9469V41.184H42.3389V28.032C44.5469 29.28 47.0909 30 49.7789 30C57.9869 30 64.6589 23.376 64.6589 15.168C64.6589 6.96 57.9869 0.287999 49.7789 0.287999ZM49.7789 22.608C45.6989 22.608 42.3389 19.248 42.3389 15.168C42.3389 11.04 45.6989 7.728 49.7789 7.728C53.9069 7.728 57.2189 11.04 57.2189 15.168C57.2189 19.248 53.9069 22.608 49.7789 22.608ZM82.4283 0.287999C74.2203 0.287999 67.5963 6.96 67.5963 15.168C67.5963 23.376 74.2203 30 82.4283 30C90.6363 30 97.3083 23.376 97.3083 15.168C97.3083 6.96 90.6363 0.287999 82.4283 0.287999ZM82.4283 22.608C78.3483 22.608 74.9883 19.248 74.9883 15.168C74.9883 11.04 78.3483 7.728 82.4283 7.728C86.5563 7.728 89.8683 11.04 89.8683 15.168C89.8683 19.248 86.5563 22.608 82.4283 22.608ZM119.709 11.424C122.061 8.304 123.453 4.464 123.453 0.287999H116.013C116.013 5.136 112.941 9.264 108.573 10.8V0.287999H101.181V30H108.573V18.864H123.453V30H130.893V11.424H119.709ZM158 0.287999V15.168C158 19.248 154.688 22.608 150.56 22.608C146.48 22.608 143.12 19.248 143.12 15.168V0.287999H135.728V15.168C135.728 23.376 142.352 30 150.56 30C153.296 30 155.84 29.28 158 28.032V30H165.44V0.287999H158ZM186.025 0.287999V30H193.417V7.728H204.601V30H212.041V7.728H223.177V30H230.617V0.287999H186.025ZM256.743 0.287999V2.304C254.583 1.008 252.039 0.287999 249.303 0.287999C241.095 0.287999 234.471 6.96 234.471 15.168C234.471 23.376 241.095 30 249.303 30C252.039 30 254.583 29.28 256.743 28.032V30H264.183V0.287999H256.743ZM249.303 22.608C245.223 22.608 241.863 19.248 241.863 15.168C241.863 11.04 245.223 7.728 249.303 7.728C253.431 7.728 256.743 11.04 256.743 15.168C256.743 19.248 253.431 22.608 249.303 22.608ZM291.313 0.287999V11.424H276.433V0.287999H269.041V30H276.433V18.864H291.313V30H298.753V0.287999H291.313ZM329.604 22.608V0.287999H322.164V22.608H310.98V0.287999H303.588V30H323.028C320.964 32.304 318.036 33.744 314.724 33.744V41.184C324.996 41.184 333.3 32.832 333.3 22.608H329.604ZM356.656 15.168C356.656 19.248 353.344 22.608 349.216 22.608C346.48 22.608 344.08 21.072 342.784 18.864H349.216V11.424H341.776V7.728H360.4V0.287999H334.384V15.168C334.384 23.376 341.008 30 349.216 30C357.424 30 364.096 23.376 364.096 15.168H356.656ZM392.365 11.424C392.461 10.848 392.557 10.224 392.557 9.6C392.557 4.464 388.381 0.287999 383.245 0.287999H366.541V30H396.253V11.424H392.365ZM373.933 7.728H383.245C384.253 7.728 385.117 8.544 385.117 9.6C385.117 10.608 384.253 11.424 383.245 11.424H373.933V7.728ZM388.813 22.608H373.933V18.864H388.813V22.608ZM0.4 56.288V86H7.792V63.728H22.672V86H30.112V56.288H0.4ZM48.8189 56.288C40.6109 56.288 33.9869 62.96 33.9869 71.168C33.9869 79.376 40.6109 86 48.8189 86C57.0269 86 63.6989 79.376 63.6989 71.168C63.6989 62.96 57.0269 56.288 48.8189 56.288ZM48.8189 78.608C44.7389 78.608 41.3789 75.248 41.3789 71.168C41.3789 67.04 44.7389 63.728 48.8189 63.728C52.9469 63.728 56.2589 67.04 56.2589 71.168C56.2589 75.248 52.9469 78.608 48.8189 78.608ZM83.3219 56.288V86H90.7139V63.728H105.594V86H113.034V56.288H83.3219ZM131.741 56.288C123.533 56.288 116.909 62.96 116.909 71.168C116.909 79.376 123.533 86 131.741 86C139.949 86 146.621 79.376 146.621 71.168C146.621 62.96 139.949 56.288 131.741 56.288ZM131.741 78.608C127.661 78.608 124.301 75.248 124.301 71.168C124.301 67.04 127.661 63.728 131.741 63.728C135.869 63.728 139.181 67.04 139.181 71.168C139.181 75.248 135.869 78.608 131.741 78.608ZM150.494 56.288V86H157.886V63.728H172.766V86H180.206V56.288H150.494ZM207.313 56.288V71.168C207.313 75.248 204.001 78.608 199.873 78.608C195.793 78.608 192.433 75.248 192.433 71.168V56.288H185.041V71.168C185.041 79.376 191.665 86 199.873 86C202.609 86 205.153 85.28 207.313 84.032V89.744H188.737V97.184H214.753V56.288H207.313ZM222.756 56.288V72.992C222.756 76.112 220.26 78.608 217.188 78.608V86C224.34 86 230.196 80.192 230.196 72.992V63.728H241.332V86H248.772V56.288H222.756ZM253.619 56.288V74.864H257.315C255.011 77.984 253.619 81.824 253.619 86H261.011C261.011 79.856 266.003 74.864 272.195 74.864H275.891V86H283.331V56.288H253.619ZM275.891 67.424H261.011V63.728H275.891V67.424ZM302.998 56.288C300.31 56.288 297.766 57.008 295.558 58.304V56.288H288.166V97.184H295.558V84.032C297.766 85.28 300.31 86 302.998 86C311.206 86 317.878 79.376 317.878 71.168C317.878 62.96 311.206 56.288 302.998 56.288ZM302.998 78.608C298.918 78.608 295.558 75.248 295.558 71.168C295.558 67.04 298.918 63.728 302.998 63.728C307.126 63.728 310.438 67.04 310.438 71.168C310.438 75.248 307.126 78.608 302.998 78.608ZM344.047 56.288V67.424H329.167V56.288H321.775V86H329.167V74.864H344.047V86H351.487V56.288H344.047ZM363.714 56.288H356.322V72.992C356.322 80.192 362.13 86 369.33 86C376.482 86 382.338 80.192 382.338 72.992V63.728H363.714V56.288ZM374.898 71.168V72.992C374.898 76.112 372.402 78.608 369.33 78.608C366.21 78.608 363.714 76.112 363.714 72.992V71.168H374.898ZM393.474 86V56.288H386.034V86H393.474ZM424.579 56.288L416.851 64.016L409.075 56.288H398.275V86H405.667V63.728H406.003L416.851 74.528L427.651 63.728H427.987V86H435.427V56.288H424.579ZM481.802 67.424C481.898 66.848 481.994 66.224 481.994 65.6C481.994 60.464 477.818 56.288 472.682 56.288H455.978V86H485.69V67.424H481.802ZM463.37 63.728H472.682C473.69 63.728 474.554 64.544 474.554 65.6C474.554 66.608 473.69 67.424 472.682 67.424H463.37V63.728ZM478.25 78.608H463.37V74.864H478.25V78.608ZM512.797 56.288V71.168C512.797 75.248 509.485 78.608 505.357 78.608C501.277 78.608 497.917 75.248 497.917 71.168V56.288H490.525V71.168C490.525 79.376 497.149 86 505.357 86C508.093 86 510.637 85.28 512.797 84.032V86H520.237V56.288H512.797ZM546.384 56.288V58.304C544.224 57.008 541.68 56.288 538.944 56.288C530.736 56.288 524.112 62.96 524.112 71.168C524.112 79.376 530.736 86 538.944 86C541.68 86 544.224 85.28 546.384 84.032V89.744H527.808V97.184H553.824V56.288H546.384ZM538.944 78.608C534.864 78.608 531.504 75.248 531.504 71.168C531.504 67.04 534.864 63.728 538.944 63.728C543.072 63.728 546.384 67.04 546.384 71.168C546.384 75.248 543.072 78.608 538.944 78.608ZM580.953 71.168C580.953 75.248 577.641 78.608 573.513 78.608C570.777 78.608 568.377 77.072 567.081 74.864H573.513V67.424H566.073V63.728H584.697V56.288H558.681V71.168C558.681 79.376 565.305 86 573.513 86C581.721 86 588.393 79.376 588.393 71.168H580.953ZM604.71 56.288C596.502 56.288 589.878 62.96 589.878 71.168C589.878 79.376 596.502 86 604.71 86C612.918 86 619.59 79.376 619.59 71.168C619.59 62.96 612.918 56.288 604.71 56.288ZM604.71 78.608C600.63 78.608 597.27 75.248 597.27 71.168C597.27 67.04 600.63 63.728 604.71 63.728C608.838 63.728 612.15 67.04 612.15 71.168C612.15 75.248 608.838 78.608 604.71 78.608Z" fill="#00FFDF"/>
</svg>
