<svg width="103" height="24" viewBox="0 0 103 24" fill="none" xmlns="http://www.w3.org/2000/svg">
<path d="M49.1689 8.17578L45.9258 11.9639L49.2568 17H45.9258L43.8604 13.8535L43.0518 14.75V17H39.9932V8.17578H43.0518V11.2432L45.6621 8.17578H49.1689ZM51.1553 8.17578H58.7139V17H55.6553V10.8828H53.9414C53.9414 12.1074 53.8623 13.1445 53.7041 13.9941C53.5518 14.8438 53.3232 15.5029 53.0186 15.9717C52.7139 16.4404 52.3682 16.7744 51.9814 16.9736C51.6006 17.1729 51.1465 17.2725 50.6191 17.2725C50.3789 17.2725 50.1387 17.2461 49.8984 17.1934C49.6582 17.1465 49.4766 17.1055 49.3535 17.0703L49.1777 17V14.3018C49.3594 14.3604 49.5381 14.3896 49.7139 14.3896C50.0479 14.3896 50.3086 14.3018 50.4961 14.126C50.6836 13.9443 50.8389 13.543 50.9619 12.9219C51.0908 12.2949 51.1553 11.4043 51.1553 10.25V8.17578ZM68.6104 17H65.5518V16.0068C65.4932 16.0889 65.4023 16.1973 65.2793 16.332C65.1621 16.4668 64.9014 16.6426 64.4971 16.8594C64.0986 17.0703 63.6709 17.1758 63.2139 17.1758C62.376 17.1758 61.6846 16.9326 61.1396 16.4463C60.6006 15.9541 60.3311 15.3594 60.3311 14.6621C60.3311 13.9414 60.5654 13.3408 61.0342 12.8604C61.5029 12.3799 62.168 12.0488 63.0293 11.8672L65.5518 11.3311C65.5518 11.0908 65.4434 10.8799 65.2266 10.6982C65.0098 10.5166 64.6992 10.4258 64.2949 10.4258C63.9492 10.4258 63.6152 10.502 63.293 10.6543C62.9766 10.8066 62.751 10.9531 62.6162 11.0938L62.4053 11.3311L60.876 9.71387C60.9111 9.66699 60.958 9.60547 61.0166 9.5293C61.0752 9.44727 61.2188 9.30957 61.4473 9.11621C61.6758 8.92285 61.9219 8.75293 62.1855 8.60645C62.4492 8.4541 62.7949 8.31641 63.2227 8.19336C63.6504 8.06445 64.0957 8 64.5586 8C65.7363 8 66.7061 8.3457 67.4678 9.03711C68.2295 9.72852 68.6104 10.5576 68.6104 11.5244V17ZM64.207 14.8379C64.5762 14.8379 64.8926 14.6943 65.1562 14.4072C65.4199 14.1201 65.5518 13.7539 65.5518 13.3086V13.0361L64.207 13.3086C63.9785 13.3555 63.7852 13.458 63.627 13.6162C63.4688 13.7744 63.3896 13.9414 63.3896 14.1172C63.3955 14.5977 63.668 14.8379 64.207 14.8379ZM71.748 15.8047C70.793 14.8848 70.3154 13.8125 70.3154 12.5879C70.3154 11.3633 70.793 10.2939 71.748 9.37988C72.7031 8.45996 73.8457 8 75.1758 8C75.6445 8 76.0957 8.06445 76.5293 8.19336C76.9629 8.31641 77.3203 8.46582 77.6016 8.6416C77.8828 8.81152 78.1318 8.98438 78.3486 9.16016C78.5654 9.33594 78.7207 9.48828 78.8145 9.61719L78.9551 9.80176L77.1621 11.6914C77.1152 11.6211 77.0449 11.5332 76.9512 11.4277C76.8633 11.3164 76.6611 11.167 76.3447 10.9795C76.0342 10.792 75.7061 10.6982 75.3604 10.6982C74.8213 10.6982 74.3701 10.8799 74.0068 11.2432C73.6494 11.6006 73.4707 12.0488 73.4707 12.5879C73.4707 13.127 73.6494 13.5781 74.0068 13.9414C74.3701 14.2988 74.8213 14.4775 75.3604 14.4775C75.7061 14.4775 76.0283 14.3955 76.3271 14.2314C76.6318 14.0615 76.8486 13.8916 76.9775 13.7217L77.1621 13.4932L78.9551 15.3828C78.9199 15.4297 78.8701 15.4971 78.8057 15.585C78.7412 15.667 78.5918 15.8105 78.3574 16.0156C78.123 16.2148 77.8711 16.3936 77.6016 16.5518C77.332 16.7041 76.9775 16.8477 76.5381 16.9824C76.0986 17.1113 75.6445 17.1758 75.1758 17.1758C73.8457 17.1758 72.7031 16.7188 71.748 15.8047ZM81.0996 15.8047C80.1445 14.8848 79.667 13.8125 79.667 12.5879C79.667 11.3633 80.1445 10.2939 81.0996 9.37988C82.0547 8.45996 83.1973 8 84.5273 8C84.9961 8 85.4473 8.06445 85.8809 8.19336C86.3145 8.31641 86.6719 8.46582 86.9531 8.6416C87.2344 8.81152 87.4834 8.98438 87.7002 9.16016C87.917 9.33594 88.0723 9.48828 88.166 9.61719L88.3066 9.80176L86.5137 11.6914C86.4668 11.6211 86.3965 11.5332 86.3027 11.4277C86.2148 11.3164 86.0127 11.167 85.6963 10.9795C85.3857 10.792 85.0576 10.6982 84.7119 10.6982C84.1729 10.6982 83.7217 10.8799 83.3584 11.2432C83.001 11.6006 82.8223 12.0488 82.8223 12.5879C82.8223 13.127 83.001 13.5781 83.3584 13.9414C83.7217 14.2988 84.1729 14.4775 84.7119 14.4775C85.0576 14.4775 85.3799 14.3955 85.6787 14.2314C85.9834 14.0615 86.2002 13.8916 86.3291 13.7217L86.5137 13.4932L88.3066 15.3828C88.2715 15.4297 88.2217 15.4971 88.1572 15.585C88.0928 15.667 87.9434 15.8105 87.709 16.0156C87.4746 16.2148 87.2227 16.3936 86.9531 16.5518C86.6836 16.7041 86.3291 16.8477 85.8896 16.9824C85.4502 17.1113 84.9961 17.1758 84.5273 17.1758C83.1973 17.1758 82.0547 16.7188 81.0996 15.8047ZM101.719 8.17578V17H98.6602V8.17578H101.719ZM92.9033 14.6621H93.7998C94.0283 14.6621 94.2188 14.5859 94.3711 14.4336C94.5293 14.2754 94.6084 14.082 94.6084 13.8535C94.6084 13.625 94.5293 13.4316 94.3711 13.2734C94.2188 13.1152 94.0283 13.0361 93.7998 13.0361H92.9033V14.6621ZM96.7002 11.5859C97.3506 12.1719 97.6758 12.9277 97.6758 13.8535C97.6758 14.7734 97.3506 15.5293 96.7002 16.1211C96.0498 16.707 95.1738 17 94.0723 17H89.8447V8.17578H92.9033V10.6982H94.0723C95.1738 10.6982 96.0498 10.9941 96.7002 11.5859Z" fill="white"/>
<path d="M10.8313 4.00453C12.5176 4.00453 14.204 3.99177 15.8903 4.00908C17.3004 4.02275 17.9795 4.67422 17.9868 6.061C18.0038 9.46993 18.0038 12.8786 17.9868 16.2869C17.9804 17.6955 17.3187 18.3752 15.9331 18.3825C12.5228 18.4008 9.11277 18.4008 5.70303 18.3825C4.29107 18.3762 3.61472 17.7174 3.60651 16.3297C3.5895 12.9208 3.5895 9.51215 3.60651 6.10382C3.61289 4.65236 4.28013 4.01819 5.77049 4.00817C7.45864 3.9945 9.14133 4.00453 10.8313 4.00453ZM9.68734 13.0013L9.89516 12.7707C9.89516 11.4739 9.89516 10.177 9.89516 8.88011C9.90063 5.42957 10.1887 5.82046 6.71575 5.80314C6.56625 5.80314 6.3648 5.7503 6.27639 5.82592C5.96555 6.09289 5.45601 6.3954 5.44507 6.70063C5.37124 8.73068 5.40679 10.7653 5.40679 13.1498C6.93907 11.6254 8.31731 11.4833 9.68734 13.0013Z" fill="white"/>
<path d="M1.80118 20.184C5.48195 20.184 9.03327 20.1776 12.5846 20.184C13.2992 20.184 14.3074 19.949 14.3366 21.035C14.3676 22.2341 13.3038 21.9726 12.5636 21.9726C9.1545 21.989 5.74538 21.9845 2.33716 21.9781C0.637159 21.9781 0.0100247 21.3649 0.0063786 19.7002C-0.000913645 16.1421 0.00638072 12.585 0 9.02786C0 8.35087 0.0328139 7.64108 0.896034 7.63288C1.75925 7.62468 1.80756 8.33447 1.80756 9.01146C1.79754 12.6789 1.80118 16.349 1.80118 20.184Z" fill="white"/>
</svg>
