<svg width="171" height="34" viewBox="0 0 171 34" fill="none" xmlns="http://www.w3.org/2000/svg">
<path d="M16.0489 2.92705C16.3483 2.00574 17.6517 2.00574 17.9511 2.92705L20.5922 11.0557C20.7261 11.4678 21.1101 11.7467 21.5433 11.7467L30.0903 11.7467C31.059 11.7467 31.4618 12.9863 30.6781 13.5557L23.7634 18.5795C23.4129 18.8342 23.2663 19.2855 23.4001 19.6976L26.0413 27.8262C26.3406 28.7475 25.2862 29.5137 24.5025 28.9443L17.5878 23.9205C17.2373 23.6658 16.7627 23.6658 16.4122 23.9205L9.49755 28.9443C8.71383 29.5137 7.65936 28.7475 7.95871 27.8262L10.5999 19.6976C10.7337 19.2855 10.5871 18.8342 10.2366 18.5795L3.32194 13.5557C2.53822 12.9863 2.941 11.7467 3.90972 11.7467L12.4567 11.7467C12.8899 11.7467 13.2739 11.4678 13.4078 11.0557L16.0489 2.92705Z" fill="#BEF745"/>
<path d="M50.0489 2.92705C50.3483 2.00574 51.6517 2.00574 51.9511 2.92705L54.5922 11.0557C54.7261 11.4678 55.1101 11.7467 55.5433 11.7467L64.0903 11.7467C65.059 11.7467 65.4618 12.9863 64.6781 13.5557L57.7634 18.5795C57.4129 18.8342 57.2663 19.2855 57.4001 19.6976L60.0413 27.8262C60.3406 28.7475 59.2862 29.5137 58.5025 28.9443L51.5878 23.9205C51.2373 23.6658 50.7627 23.6658 50.4122 23.9205L43.4975 28.9443C42.7138 29.5137 41.6594 28.7475 41.9587 27.8262L44.5999 19.6976C44.7337 19.2855 44.5871 18.8342 44.2366 18.5795L37.3219 13.5557C36.5382 12.9863 36.941 11.7467 37.9097 11.7467L46.4567 11.7467C46.8899 11.7467 47.2739 11.4678 47.4078 11.0557L50.0489 2.92705Z" fill="#BEF745"/>
<path d="M84.5516 2.83535C84.8561 1.92495 86.1439 1.92496 86.4484 2.83535L89.2006 11.0639C89.337 11.4718 89.7189 11.7467 90.149 11.7467L98.9924 11.7467C99.9681 11.7467 100.366 13.0011 99.569 13.5637L92.4649 18.5777C92.1042 18.8323 91.9531 19.2932 92.0932 19.7119L94.8184 27.8597C95.1249 28.7759 94.0827 29.551 93.2934 28.9939L86.0766 23.9004C85.7309 23.6564 85.2691 23.6564 84.9234 23.9004L77.7066 28.9939C76.9173 29.551 75.8751 28.7759 76.1816 27.8597L78.9068 19.7119C79.0469 19.2932 78.8958 18.8323 78.5351 18.5777L71.431 13.5637C70.6338 13.0011 71.0319 11.7467 72.0076 11.7467L80.851 11.7467C81.2811 11.7467 81.663 11.4718 81.7994 11.0639L84.5516 2.83535Z" fill="#BEF745"/>
<path d="M119.049 2.92705C119.348 2.00574 120.652 2.00574 120.951 2.92705L123.592 11.0557C123.726 11.4678 124.11 11.7467 124.543 11.7467L133.09 11.7467C134.059 11.7467 134.462 12.9863 133.678 13.5557L126.763 18.5795C126.413 18.8342 126.266 19.2855 126.4 19.6976L129.041 27.8262C129.341 28.7475 128.286 29.5137 127.502 28.9443L120.588 23.9205C120.237 23.6658 119.763 23.6658 119.412 23.9205L112.498 28.9443C111.714 29.5137 110.659 28.7475 110.959 27.8262L113.6 19.6976C113.734 19.2855 113.587 18.8342 113.237 18.5795L106.322 13.5557C105.538 12.9863 105.941 11.7467 106.91 11.7467L115.457 11.7467C115.89 11.7467 116.274 11.4678 116.408 11.0557L119.049 2.92705Z" fill="#BEF745"/>
<path d="M153.049 2.92705C153.348 2.00574 154.652 2.00574 154.951 2.92705L157.592 11.0557C157.726 11.4678 158.11 11.7467 158.543 11.7467L167.09 11.7467C168.059 11.7467 168.462 12.9863 167.678 13.5557L160.763 18.5795C160.413 18.8342 160.266 19.2855 160.4 19.6976L163.041 27.8262C163.341 28.7475 162.286 29.5137 161.502 28.9443L154.588 23.9205C154.237 23.6658 153.763 23.6658 153.412 23.9205L146.498 28.9443C145.714 29.5137 144.659 28.7475 144.959 27.8262L147.6 19.6976C147.734 19.2855 147.587 18.8342 147.237 18.5795L140.322 13.5557C139.538 12.9863 139.941 11.7467 140.91 11.7467L149.457 11.7467C149.89 11.7467 150.274 11.4678 150.408 11.0557L153.049 2.92705Z" fill="#BEF745"/>
</svg>
