<svg width="51" height="16" viewBox="0 0 51 16" fill="none" xmlns="http://www.w3.org/2000/svg">
<path d="M14.3359 4.858V13.228H10.1599V4.858H7.36991V13.228H3.17591V4.858H0.403906V16H17.1259V4.858H14.3359ZM26.9233 4.858V5.614C26.1133 5.128 25.1593 4.858 24.1333 4.858C21.0553 4.858 18.5713 7.36 18.5713 10.438C18.5713 13.516 21.0553 16 24.1333 16C25.1593 16 26.1133 15.73 26.9233 15.262V16H29.7133V4.858H26.9233ZM24.1333 13.228C22.6033 13.228 21.3433 11.968 21.3433 10.438C21.3433 8.89 22.6033 7.648 24.1333 7.648C25.6813 7.648 26.9233 8.89 26.9233 10.438C26.9233 11.968 25.6813 13.228 24.1333 13.228ZM31.5348 4.858V16H34.3068V7.648H37.0968V4.858H31.5348ZM48.8053 13.228V0.682H44.6113V3.454H46.0153V13.228H43.9273V16H50.8933V13.228H48.8053Z" fill="#BEF745"/>
</svg>
