<svg width="209" height="35" viewBox="0 0 209 35" fill="none" xmlns="http://www.w3.org/2000/svg">
<rect width="209" height="35" rx="17.5" fill="#00FFDF"/>
<path d="M45.3477 22.0488C45.9688 21.4043 46.2793 20.6162 46.2793 19.6846C46.2793 18.7471 45.9688 17.959 45.3477 17.3203C44.7324 16.6758 43.9912 16.3535 43.124 16.3535C42.2627 16.3535 41.5215 16.6758 40.9004 17.3203C40.2852 17.959 39.9775 18.7441 39.9775 19.6758C39.9775 20.6016 40.2852 21.3896 40.9004 22.04C41.5215 22.6846 42.2627 23.0068 43.124 23.0068C43.9912 23.0068 44.7324 22.6875 45.3477 22.0488ZM40.0039 22.875C39.1484 22.0078 38.7207 20.9443 38.7207 19.6846C38.7207 18.4189 39.1484 17.3525 40.0039 16.4854C40.8652 15.6123 41.9082 15.1758 43.1328 15.1758C44.3574 15.1758 45.3975 15.6123 46.2529 16.4854C47.1084 17.3525 47.5361 18.4189 47.5361 19.6846C47.5361 20.9443 47.1084 22.0078 46.2529 22.875C45.3975 23.7422 44.3574 24.1758 43.1328 24.1758C41.9082 24.1758 40.8652 23.7422 40.0039 22.875ZM50.4365 22.8662C49.5869 21.9873 49.1621 20.9238 49.1621 19.6758C49.1621 18.4277 49.5869 17.3672 50.4365 16.4941C51.292 15.6152 52.3057 15.1758 53.4775 15.1758C54.1514 15.1758 54.7783 15.3223 55.3584 15.6152C55.9443 15.9023 56.3633 16.1895 56.6152 16.4766L56.9932 16.8896L56.0879 17.7861C56.0645 17.751 56.0293 17.7012 55.9824 17.6367C55.9355 17.5723 55.8301 17.4551 55.666 17.2852C55.5078 17.1152 55.335 16.9688 55.1475 16.8457C54.96 16.7168 54.7168 16.6025 54.418 16.5029C54.1191 16.4033 53.8057 16.3535 53.4775 16.3535C52.6514 16.3535 51.9336 16.6758 51.3242 17.3203C50.7207 17.959 50.4189 18.7471 50.4189 19.6846C50.4189 20.6162 50.7207 21.4043 51.3242 22.0488C51.9336 22.6875 52.6514 23.0068 53.4775 23.0068C53.9814 23.0068 54.459 22.8867 54.9102 22.6465C55.3613 22.4062 55.6895 22.166 55.8945 21.9258L56.1846 21.5742L57.0811 22.3828C57.0459 22.4297 56.9902 22.4971 56.9141 22.585C56.8438 22.667 56.6914 22.8105 56.457 23.0156C56.2227 23.2148 55.9766 23.3936 55.7188 23.5518C55.4609 23.7041 55.127 23.8477 54.7168 23.9824C54.3125 24.1113 53.8994 24.1758 53.4775 24.1758C52.2998 24.1758 51.2861 23.7393 50.4365 22.8662ZM57.9775 16.5293V15.3604H65.3516V16.5293H62.293V24H61.0361V16.5293H57.9775ZM69.0518 19.0518L72.3828 18.5068C72.3828 17.8682 72.1807 17.3496 71.7764 16.9512C71.3721 16.5527 70.8535 16.3535 70.2207 16.3535C69.7637 16.3535 69.333 16.459 68.9287 16.6699C68.5303 16.875 68.2402 17.0859 68.0586 17.3027L67.7861 17.6104L66.9775 16.8018C67.0127 16.7549 67.0596 16.6963 67.1182 16.626C67.1826 16.5498 67.3174 16.4209 67.5225 16.2393C67.7334 16.0518 67.9531 15.8848 68.1816 15.7383C68.4102 15.5918 68.709 15.4629 69.0781 15.3516C69.4531 15.2344 69.834 15.1758 70.2207 15.1758C71.2051 15.1758 72.0195 15.4951 72.6641 16.1338C73.3145 16.7725 73.6396 17.5635 73.6396 18.5068V24H72.3828V22.8311C72.3594 22.8662 72.3213 22.916 72.2686 22.9805C72.2217 23.0391 72.1104 23.1475 71.9346 23.3057C71.7646 23.458 71.5801 23.5957 71.3809 23.7188C71.1816 23.8359 70.918 23.9414 70.5898 24.0352C70.2676 24.1289 69.9336 24.1758 69.5879 24.1758C68.7266 24.1758 68 23.9209 67.4082 23.4111C66.8223 22.9014 66.5293 22.3184 66.5293 21.6621C66.5293 20.9414 66.7461 20.3613 67.1797 19.9219C67.6133 19.4766 68.2373 19.1865 69.0518 19.0518ZM69.5879 23.0068C70.4023 23.0068 71.0703 22.7402 71.5918 22.207C72.1191 21.6738 72.3828 20.9824 72.3828 20.1328V19.5879L69.4121 20.1328C68.334 20.3379 67.792 20.8477 67.7861 21.6621C67.7861 22.0488 67.9443 22.3711 68.2607 22.6289C68.583 22.8809 69.0254 23.0068 69.5879 23.0068ZM76.5137 15.3604H80.4688C81.2598 15.3604 81.8926 15.5742 82.3672 16.002C82.8418 16.4238 83.0791 16.96 83.0791 17.6104C83.0791 17.9795 82.9883 18.3164 82.8066 18.6211C82.6309 18.9199 82.4521 19.1279 82.2705 19.2451L81.998 19.4121C82.0332 19.4238 82.083 19.4414 82.1475 19.4648C82.2178 19.4883 82.335 19.5527 82.499 19.6582C82.6689 19.7578 82.8154 19.8779 82.9385 20.0186C83.0674 20.1533 83.1816 20.3496 83.2812 20.6074C83.3867 20.8652 83.4395 21.1553 83.4395 21.4775C83.4395 22.2568 83.1963 22.8721 82.71 23.3232C82.2236 23.7744 81.5381 24 80.6533 24H76.5137V15.3604ZM80.6533 19.9482H77.7705V22.8311H80.6533C81.1455 22.8311 81.5234 22.7051 81.7871 22.4531C82.0508 22.2012 82.1826 21.8467 82.1826 21.3896C82.1826 20.9326 82.0508 20.5781 81.7871 20.3262C81.5234 20.0742 81.1455 19.9482 80.6533 19.9482ZM80.4688 18.8672C81.3711 18.8672 81.8223 18.4775 81.8223 17.6982C81.8223 16.9189 81.3711 16.5293 80.4688 16.5293H77.7705V18.8672H80.4688ZM92.3428 15.3604H93.4238V24H92.1582V17.5225L86.9375 24H85.8652V15.3604H87.1221V21.8379L92.3428 15.3604ZM95.2256 16.5293V15.3604H102.6V16.5293H99.541V24H98.2842V16.5293H95.2256ZM105.667 22.8311H107.935C108.497 22.8311 108.948 22.6729 109.288 22.3564C109.634 22.0342 109.807 21.6211 109.807 21.1172C109.807 20.6133 109.634 20.2031 109.288 19.8867C108.948 19.5703 108.491 19.4121 107.917 19.4121H105.667V22.8311ZM110.22 19.0342C110.782 19.5615 111.063 20.2588 111.063 21.126C111.063 21.9873 110.785 22.6816 110.229 23.209C109.672 23.7363 108.907 24 107.935 24H104.41V15.3604H105.667V18.2432H107.917C108.89 18.2432 109.657 18.5068 110.22 19.0342ZM121.971 17.6104C121.971 17.8975 121.924 18.1582 121.83 18.3926C121.742 18.627 121.631 18.8115 121.496 18.9463C121.367 19.0752 121.232 19.1865 121.092 19.2803C120.957 19.3682 120.846 19.4297 120.758 19.4648L120.617 19.5C120.664 19.5117 120.726 19.5264 120.802 19.5439C120.884 19.5615 121.019 19.6201 121.206 19.7197C121.399 19.8135 121.569 19.9307 121.716 20.0713C121.868 20.2061 122.006 20.4053 122.129 20.6689C122.258 20.9326 122.322 21.2344 122.322 21.5742C122.322 22.3066 122.035 22.9248 121.461 23.4287C120.887 23.9268 120.066 24.1758 119 24.1758C118.59 24.1758 118.2 24.123 117.831 24.0176C117.468 23.9121 117.163 23.7861 116.917 23.6396C116.671 23.4932 116.457 23.3467 116.275 23.2002C116.1 23.0479 115.968 22.9189 115.88 22.8135L115.757 22.6465L116.565 21.8379C116.636 21.9199 116.732 22.0283 116.855 22.1631C116.984 22.2979 117.26 22.4736 117.682 22.6904C118.104 22.9014 118.543 23.0068 119 23.0068C119.686 23.0068 120.201 22.875 120.547 22.6113C120.893 22.3477 121.065 22.002 121.065 21.5742C121.065 21.1406 120.89 20.792 120.538 20.5283C120.192 20.2646 119.68 20.1328 119 20.1328H118.007V18.9639H119C119.516 18.9639 119.929 18.832 120.239 18.5684C120.55 18.2988 120.705 17.9795 120.705 17.6104C120.705 17.2354 120.562 16.9336 120.274 16.7051C119.987 16.4707 119.562 16.3535 119 16.3535C118.602 16.3535 118.221 16.4355 117.857 16.5996C117.5 16.7578 117.245 16.9219 117.093 17.0918L116.838 17.3379L115.933 16.4414C116.015 16.3477 116.135 16.2305 116.293 16.0898C116.451 15.9492 116.794 15.7617 117.321 15.5273C117.849 15.293 118.408 15.1758 119 15.1758C119.879 15.1758 120.594 15.416 121.145 15.8965C121.695 16.377 121.971 16.9482 121.971 17.6104ZM126.567 19.0518L129.898 18.5068C129.898 17.8682 129.696 17.3496 129.292 16.9512C128.888 16.5527 128.369 16.3535 127.736 16.3535C127.279 16.3535 126.849 16.459 126.444 16.6699C126.046 16.875 125.756 17.0859 125.574 17.3027L125.302 17.6104L124.493 16.8018C124.528 16.7549 124.575 16.6963 124.634 16.626C124.698 16.5498 124.833 16.4209 125.038 16.2393C125.249 16.0518 125.469 15.8848 125.697 15.7383C125.926 15.5918 126.225 15.4629 126.594 15.3516C126.969 15.2344 127.35 15.1758 127.736 15.1758C128.721 15.1758 129.535 15.4951 130.18 16.1338C130.83 16.7725 131.155 17.5635 131.155 18.5068V24H129.898V22.8311C129.875 22.8662 129.837 22.916 129.784 22.9805C129.737 23.0391 129.626 23.1475 129.45 23.3057C129.28 23.458 129.096 23.5957 128.896 23.7188C128.697 23.8359 128.434 23.9414 128.105 24.0352C127.783 24.1289 127.449 24.1758 127.104 24.1758C126.242 24.1758 125.516 23.9209 124.924 23.4111C124.338 22.9014 124.045 22.3184 124.045 21.6621C124.045 20.9414 124.262 20.3613 124.695 19.9219C125.129 19.4766 125.753 19.1865 126.567 19.0518ZM127.104 23.0068C127.918 23.0068 128.586 22.7402 129.107 22.207C129.635 21.6738 129.898 20.9824 129.898 20.1328V19.5879L126.928 20.1328C125.85 20.3379 125.308 20.8477 125.302 21.6621C125.302 22.0488 125.46 22.3711 125.776 22.6289C126.099 22.8809 126.541 23.0068 127.104 23.0068ZM133.484 18.2432C133.484 17.417 133.774 16.7314 134.354 16.1865C134.94 15.6357 135.702 15.3604 136.64 15.3604H140.322V24H139.065V21.1172H136.543L134.75 24H133.309L135.286 20.8535C135.239 20.8418 135.172 20.8213 135.084 20.792C135.002 20.7568 134.858 20.6777 134.653 20.5547C134.448 20.4258 134.267 20.2734 134.108 20.0977C133.956 19.916 133.812 19.6641 133.678 19.3418C133.549 19.0195 133.484 18.6533 133.484 18.2432ZM139.065 16.5293H136.64C136.065 16.5293 135.605 16.6904 135.26 17.0127C134.92 17.3291 134.75 17.7393 134.75 18.2432C134.75 18.7471 134.92 19.1572 135.26 19.4736C135.6 19.79 136.06 19.9482 136.64 19.9482H139.065V16.5293ZM143.205 15.3604H147.16C147.951 15.3604 148.584 15.5742 149.059 16.002C149.533 16.4238 149.771 16.96 149.771 17.6104C149.771 17.9795 149.68 18.3164 149.498 18.6211C149.322 18.9199 149.144 19.1279 148.962 19.2451L148.689 19.4121C148.725 19.4238 148.774 19.4414 148.839 19.4648C148.909 19.4883 149.026 19.5527 149.19 19.6582C149.36 19.7578 149.507 19.8779 149.63 20.0186C149.759 20.1533 149.873 20.3496 149.973 20.6074C150.078 20.8652 150.131 21.1553 150.131 21.4775C150.131 22.2568 149.888 22.8721 149.401 23.3232C148.915 23.7744 148.229 24 147.345 24H143.205V15.3604ZM147.345 19.9482H144.462V22.8311H147.345C147.837 22.8311 148.215 22.7051 148.479 22.4531C148.742 22.2012 148.874 21.8467 148.874 21.3896C148.874 20.9326 148.742 20.5781 148.479 20.3262C148.215 20.0742 147.837 19.9482 147.345 19.9482ZM147.16 18.8672C148.062 18.8672 148.514 18.4775 148.514 17.6982C148.514 16.9189 148.062 16.5293 147.16 16.5293H144.462V18.8672H147.16ZM153.813 21.5742V24H152.557V15.3604H153.813V19.9482L158.129 15.3604H159.667L156.336 18.8672L160.027 24H158.586L155.527 19.7725L153.813 21.5742ZM163.534 25.2568L163.982 24L160.467 15.3604H161.82L164.615 22.3828L167.401 15.3604H168.755L164.791 25.2568C164.434 26.1709 164.05 26.8184 163.64 27.1992C163.229 27.5859 162.714 27.7793 162.093 27.7793C161.899 27.7793 161.712 27.7646 161.53 27.7354C161.354 27.7061 161.223 27.6738 161.135 27.6387L161.012 27.6035V26.4258C161.311 26.543 161.609 26.6045 161.908 26.6104C162.67 26.6104 163.212 26.1592 163.534 25.2568Z" fill="black"/>
</svg>
